<svg width="21" height="14" viewBox="0 0 21 14" fill="none" xmlns="http://www.w3.org/2000/svg">
<path fill-rule="evenodd" clip-rule="evenodd" d="M-2.95052e-07 6.75C-3.03745e-07 6.55112 0.0790122 6.36038 0.219656 6.21974C0.360299 6.07911 0.551052 6.00011 0.749952 6.00011L18.4383 6.00011L13.7181 1.28177C13.5773 1.14096 13.4982 0.949977 13.4982 0.750842C13.4982 0.551707 13.5773 0.360727 13.7181 0.219917C13.8589 0.0791057 14.0499 3.39532e-07 14.2491 3.30827e-07C14.4482 3.22122e-07 14.6392 0.0791057 14.7801 0.219917L20.7797 6.21907C20.8495 6.28873 20.9049 6.37149 20.9427 6.46259C20.9805 6.55369 21 6.65136 21 6.75C21 6.84864 20.9805 6.9463 20.9427 7.03741C20.9049 7.12851 20.8495 7.21127 20.7797 7.28093L14.7801 13.2801C14.6392 13.4209 14.4482 13.5 14.2491 13.5C14.0499 13.5 13.8589 13.4209 13.7181 13.2801C13.5773 13.1393 13.4982 12.9483 13.4982 12.7492C13.4982 12.55 13.5773 12.359 13.7181 12.2182L18.4383 7.49989L0.749952 7.4999C0.551052 7.4999 0.360299 7.42089 0.219656 7.28026C0.0790123 7.13962 -2.86358e-07 6.94888 -2.95052e-07 6.75Z" fill="#9F9F9F"/>
</svg>
