<svg width="29" height="20" viewBox="0 0 29 20" fill="none" xmlns="http://www.w3.org/2000/svg">
<path d="M28.1007 3.82199C27.9382 3.27084 27.6217 2.77186 27.1847 2.37809C26.7355 1.97221 26.1849 1.68187 25.5848 1.53448C23.3392 0.971702 14.3425 0.971702 14.3425 0.971702C10.5918 0.931128 6.84209 1.10958 3.11445 1.50606C2.51441 1.66434 1.96482 1.96116 1.51455 2.37013C1.07212 2.77488 0.751664 3.27399 0.58426 3.82085C0.182124 5.88068 -0.0132617 7.97218 0.000737992 10.0672C-0.0136109 12.1603 0.181295 14.2511 0.58426 16.3135C0.748077 16.8581 1.06734 17.3549 1.51096 17.7562C1.95458 18.1576 2.50701 18.4475 3.11445 18.601C5.38995 19.1626 14.3425 19.1626 14.3425 19.1626C18.0979 19.2032 21.8524 19.0248 25.5848 18.6283C26.1849 18.4809 26.7355 18.1905 27.1847 17.7847C27.6215 17.391 27.9377 16.8919 28.0995 16.3408C28.5121 14.2817 28.7127 12.1893 28.6985 10.0933C28.7296 7.9884 28.5292 5.88616 28.1007 3.82085V3.82199ZM11.4823 13.96V6.17544L18.9676 10.0683L11.4823 13.96Z" fill="white"/>
</svg>
