<svg width="29" height="29" viewBox="0 0 29 29" fill="none" xmlns="http://www.w3.org/2000/svg">
<path d="M22.6038 3.56897C23.2348 3.56897 23.84 3.81965 24.2862 4.26585C24.7324 4.71206 24.9831 5.31725 24.9831 5.94828V22.6034C24.9831 23.2345 24.7324 23.8396 24.2862 24.2859C23.84 24.7321 23.2348 24.9827 22.6038 24.9827H5.94864C5.31761 24.9827 4.71243 24.7321 4.26622 24.2859C3.82001 23.8396 3.56934 23.2345 3.56934 22.6034V5.94828C3.56934 5.31725 3.82001 4.71206 4.26622 4.26585C4.71243 3.81965 5.31761 3.56897 5.94864 3.56897H22.6038ZM22.009 22.0086V15.7034C22.009 14.6749 21.6004 13.6884 20.8731 12.9611C20.1457 12.2338 19.1593 11.8252 18.1307 11.8252C17.1195 11.8252 15.9417 12.4438 15.3707 13.3717V12.0512H12.0516V22.0086H15.3707V16.1436C15.3707 15.2276 16.1083 14.4781 17.0243 14.4781C17.466 14.4781 17.8897 14.6536 18.202 14.9659C18.5144 15.2783 18.6898 15.7019 18.6898 16.1436V22.0086H22.009ZM8.18519 10.1834C8.71526 10.1834 9.22362 9.97288 9.59843 9.59806C9.97324 9.22325 10.1838 8.71489 10.1838 8.18483C10.1838 7.07845 9.29157 6.17431 8.18519 6.17431C7.65197 6.17431 7.14059 6.38613 6.76354 6.76318C6.3865 7.14022 6.17468 7.65161 6.17468 8.18483C6.17468 9.2912 7.07881 10.1834 8.18519 10.1834ZM9.83881 22.0086V12.0512H6.54347V22.0086H9.83881Z" fill="white"/>
</svg>
