<svg width="21" height="22" viewBox="0 0 21 22" fill="none" xmlns="http://www.w3.org/2000/svg">
<path fill-rule="evenodd" clip-rule="evenodd" d="M6.07775 0.325908C7.18049 0.27319 7.53209 0.261475 10.3411 0.261475C13.1501 0.261475 13.5017 0.274166 14.6035 0.325908C15.7053 0.377649 16.4574 0.56021 17.1155 0.824776C17.8046 1.0952 18.4297 1.51792 18.9468 2.06462C19.4732 2.60059 19.8794 3.24883 20.1388 3.9654C20.3946 4.64878 20.5694 5.42979 20.6202 6.57201C20.6709 7.71911 20.6822 8.08424 20.6822 11.0003C20.6822 13.9174 20.67 14.2825 20.6202 15.4277C20.5703 16.5699 20.3946 17.3509 20.1388 18.0343C19.8794 18.7509 19.4726 19.4002 18.9468 19.937C18.4297 20.4837 17.8046 20.9054 17.1155 21.1749C16.4574 21.4404 15.7053 21.622 14.6054 21.6747C13.5017 21.7275 13.1501 21.7392 10.3411 21.7392C7.53209 21.7392 7.18049 21.7265 6.07775 21.6747C4.97783 21.623 4.22575 21.4404 3.56768 21.1749C2.87757 20.9054 2.25231 20.483 1.73543 19.937C1.20933 19.4007 0.802202 18.7517 0.542438 18.0352C0.287671 17.3519 0.112812 16.5709 0.0620466 15.4286C0.0112812 14.2815 0 13.9164 0 11.0003C0 8.08326 0.0122213 7.71814 0.0620466 6.57396C0.111872 5.42979 0.287671 4.64878 0.542438 3.9654C0.802586 3.24891 1.21002 2.59992 1.73637 2.06365C2.25252 1.51743 2.87715 1.09466 3.56674 0.824776C4.22481 0.56021 4.97689 0.378626 6.07681 0.325908H6.07775ZM14.5199 2.2589C13.4293 2.20716 13.1022 2.19642 10.3411 2.19642C7.58003 2.19642 7.25288 2.20716 6.16236 2.2589C5.15363 2.30674 4.60649 2.48149 4.24174 2.6289C3.75946 2.82415 3.41445 3.05553 3.05251 3.43139C2.70941 3.77801 2.44537 4.19998 2.27974 4.66635C2.13779 5.04514 1.96951 5.61332 1.92345 6.66085C1.87362 7.79331 1.86328 8.13305 1.86328 11.0003C1.86328 13.8676 1.87362 14.2073 1.92345 15.3398C1.96951 16.3873 2.13779 16.9555 2.27974 17.3343C2.4452 17.8 2.70937 18.2227 3.05251 18.5693C3.38624 18.9256 3.79331 19.1999 4.24174 19.3717C4.60649 19.5192 5.15363 19.6939 6.16236 19.7417C7.25288 19.7935 7.57909 19.8042 10.3411 19.8042C13.1031 19.8042 13.4293 19.7935 14.5199 19.7417C15.5286 19.6939 16.0757 19.5192 16.4405 19.3717C16.9228 19.1765 17.2678 18.9451 17.6297 18.5693C17.9728 18.2227 18.237 17.8 18.4025 17.3343C18.5444 16.9555 18.7127 16.3873 18.7588 15.3398C18.8086 14.2073 18.8189 13.8676 18.8189 11.0003C18.8189 8.13305 18.8086 7.79331 18.7588 6.66085C18.7127 5.61332 18.5444 5.04514 18.4025 4.66635C18.2145 4.16553 17.9917 3.80725 17.6297 3.43139C17.2959 3.07512 16.8896 2.80093 16.4405 2.6289C16.0757 2.48149 15.5286 2.30674 14.5199 2.2589ZM9.02027 14.3108C9.75793 14.6297 10.5793 14.6727 11.3441 14.4326C12.109 14.1924 12.7698 13.684 13.2137 12.9941C13.6576 12.3042 13.8571 11.4756 13.7782 10.6499C13.6992 9.82426 13.3466 9.05266 12.7807 8.46693C12.4199 8.09251 11.9837 7.80582 11.5034 7.62749C11.0231 7.44916 10.5107 7.38363 10.0031 7.43562C9.49555 7.48762 9.00537 7.65583 8.56789 7.92816C8.13042 8.20049 7.75653 8.57016 7.47315 9.01056C7.18976 9.45096 7.00393 9.95112 6.92903 10.4751C6.85413 10.999 6.89202 11.5336 7.03998 12.0405C7.18794 12.5474 7.44229 13.014 7.78471 13.4065C8.12714 13.7991 8.54911 14.1079 9.02027 14.3108ZM6.58259 7.09724C7.07616 6.58468 7.66212 6.17809 8.30701 5.9007C8.9519 5.6233 9.64309 5.48053 10.3411 5.48053C11.0391 5.48053 11.7303 5.6233 12.3752 5.9007C13.0201 6.17809 13.6061 6.58468 14.0996 7.09724C14.5932 7.6098 14.9847 8.2183 15.2519 8.88799C15.519 9.55768 15.6565 10.2755 15.6565 11.0003C15.6565 11.7252 15.519 12.443 15.2519 13.1127C14.9847 13.7823 14.5932 14.3908 14.0996 14.9034C13.1028 15.9386 11.7508 16.5201 10.3411 16.5201C8.93139 16.5201 7.57941 15.9386 6.58259 14.9034C5.58576 13.8682 5.02576 12.4643 5.02576 11.0003C5.02576 9.53638 5.58576 8.1324 6.58259 7.09724ZM16.8353 6.30256C16.9576 6.18275 17.0556 6.03866 17.1233 5.87884C17.191 5.71902 17.2272 5.54671 17.2296 5.37212C17.2321 5.19753 17.2008 5.0242 17.1376 4.8624C17.0743 4.70059 16.9805 4.55361 16.8616 4.43014C16.7427 4.30667 16.6012 4.20923 16.4454 4.14358C16.2896 4.07794 16.1226 4.04543 15.9545 4.04797C15.7864 4.05052 15.6205 4.08807 15.4666 4.1584C15.3127 4.22873 15.1739 4.33042 15.0585 4.45743C14.8341 4.70446 14.7113 5.03257 14.7161 5.37212C14.7208 5.71167 14.8528 6.03593 15.0841 6.27605C15.3153 6.51618 15.6275 6.65326 15.9545 6.65821C16.2815 6.66316 16.5975 6.53559 16.8353 6.30256Z" fill="white"/>
</svg>
