<svg width="29" height="29" viewBox="0 0 29 29" fill="none" xmlns="http://www.w3.org/2000/svg">
<path d="M20.2941 24.9827V16.6956H23.0696L23.4848 13.474H20.2941V11.4183C20.2941 10.4856 20.5535 9.84915 21.8906 9.84915H23.5966V6.96781C22.7707 6.88019 21.9407 6.83769 21.1102 6.84052C18.6512 6.84052 16.9679 8.34186 16.9679 11.0995V13.474H14.1864V16.6956H16.9679V24.9827H6.72969C6.41418 24.9827 6.11158 24.8574 5.88848 24.6343C5.66538 24.4112 5.54004 24.1086 5.54004 23.7931V4.75862C5.54004 4.44311 5.66538 4.14051 5.88848 3.91741C6.11158 3.69431 6.41418 3.56897 6.72969 3.56897H25.7642C26.0797 3.56897 26.3823 3.69431 26.6054 3.91741C26.8285 4.14051 26.9538 4.44311 26.9538 4.75862V23.7931C26.9538 24.1086 26.8285 24.4112 26.6054 24.6343C26.3823 24.8574 26.0797 24.9827 25.7642 24.9827H20.2941Z" fill="white"/>
</svg>
