<svg width="24" height="25" viewBox="0 0 24 25" fill="none" xmlns="http://www.w3.org/2000/svg">
<g clip-path="url(#clip0_215_548)">
<path d="M23.5091 5.46606C22.6788 5.83397 21.7869 6.08255 20.8492 6.19491C21.8167 5.616 22.5405 4.70486 22.8856 3.63151C21.9766 4.17142 20.9818 4.55146 19.9444 4.75511C19.2467 4.01022 18.3227 3.51649 17.3157 3.35058C16.3087 3.18467 15.2751 3.35587 14.3753 3.83759C13.4756 4.31931 12.7601 5.08459 12.3398 6.01464C11.9196 6.94469 11.8182 7.98745 12.0513 8.98104C10.2095 8.88857 8.40769 8.40985 6.76286 7.57595C5.11802 6.74205 3.66691 5.57162 2.50369 4.14061C2.10595 4.8267 1.87726 5.62217 1.87726 6.46935C1.87681 7.232 2.06462 7.98297 2.42402 8.65563C2.78342 9.32829 3.3033 9.90184 3.93752 10.3254C3.20199 10.302 2.48268 10.1032 1.83947 9.74569V9.80535C1.8394 10.875 2.2094 11.9117 2.88669 12.7396C3.56398 13.5675 4.50685 14.1356 5.55531 14.3475C4.87298 14.5321 4.15761 14.5593 3.46322 14.427C3.75904 15.3474 4.33525 16.1522 5.11121 16.7288C5.88716 17.3055 6.824 17.625 7.79058 17.6427C6.14976 18.9308 4.12335 19.6295 2.03734 19.6264C1.66783 19.6265 1.29863 19.6049 0.931641 19.5618C3.04906 20.9232 5.51389 21.6457 8.03121 21.6429C16.5527 21.6429 21.2112 14.5851 21.2112 8.46399C21.2112 8.26512 21.2062 8.06426 21.1972 7.8654C22.1034 7.2101 22.8855 6.39865 23.5071 5.46904L23.5091 5.46606Z" fill="#F8F8F8"/>
</g>
<defs>
<clipPath id="clip0_215_548">
<rect width="23.8641" height="23.8641" fill="white" transform="translate(0 0.556885)"/>
</clipPath>
</defs>
</svg>
