<svg width="60" height="60" viewBox="0 0 60 60" fill="none" xmlns="http://www.w3.org/2000/svg">
<path d="M22.0664 17.2383C22.9453 16.7344 24.0352 16.6523 24.9023 17.2852L41.7773 27.5977C42.6094 28.1133 43.125 29.0156 43.125 30C43.125 30.9844 42.6094 31.8867 41.7773 32.4023L24.9023 42.7148C24.0352 43.2422 22.9453 43.2656 22.0664 42.7617C21.1758 42.2695 20.625 41.332 20.625 40.3125V19.582C20.625 18.668 21.1758 17.7305 22.0664 17.2383ZM60 30C60 46.5703 46.5703 60 30 60C13.4297 60 0 46.5703 0 30C0 13.4297 13.4297 0 30 0C46.5703 0 60 13.4297 60 30ZM30 5.625C16.5352 5.625 5.625 16.5352 5.625 30C5.625 43.4648 16.5352 54.375 30 54.375C43.4648 54.375 54.375 43.4648 54.375 30C54.375 16.5352 43.4648 5.625 30 5.625Z" fill="#F8F8F8"/>
</svg>
