<svg width="30" height="34" viewBox="0 0 30 34" fill="none" xmlns="http://www.w3.org/2000/svg">
<path d="M25 33.6667C23.6111 33.6667 22.4306 33.1806 21.4583 32.2084C20.4861 31.2362 20 30.0556 20 28.6667C20 28.4723 20.0139 28.2706 20.0417 28.0617C20.0694 27.8528 20.1111 27.6656 20.1667 27.5L8.41667 20.6667C7.94444 21.0834 7.41667 21.41 6.83333 21.6467C6.25 21.8834 5.63889 22.0012 5 22C3.61111 22 2.43056 21.5139 1.45833 20.5417C0.486111 19.5695 0 18.3889 0 17C0 15.6112 0.486111 14.4306 1.45833 13.4584C2.43056 12.4862 3.61111 12 5 12C5.63889 12 6.25 12.1184 6.83333 12.355C7.41667 12.5917 7.94444 12.9178 8.41667 13.3334L20.1667 6.50004C20.1111 6.33337 20.0694 6.14615 20.0417 5.93837C20.0139 5.7306 20 5.52893 20 5.33337C20 3.94449 20.4861 2.76393 21.4583 1.79171C22.4306 0.819485 23.6111 0.333374 25 0.333374C26.3889 0.333374 27.5694 0.819485 28.5417 1.79171C29.5139 2.76393 30 3.94449 30 5.33337C30 6.72226 29.5139 7.90282 28.5417 8.87504C27.5694 9.84726 26.3889 10.3334 25 10.3334C24.3611 10.3334 23.75 10.2156 23.1667 9.98004C22.5833 9.74449 22.0556 9.41782 21.5833 9.00004L9.83333 15.8334C9.88889 16 9.93056 16.1878 9.95833 16.3967C9.98611 16.6056 10 16.8067 10 17C10 17.1945 9.98611 17.3962 9.95833 17.605C9.93056 17.8139 9.88889 18.0012 9.83333 18.1667L21.5833 25C22.0556 24.5834 22.5833 24.2573 23.1667 24.0217C23.75 23.7862 24.3611 23.6678 25 23.6667C26.3889 23.6667 27.5694 24.1528 28.5417 25.125C29.5139 26.0973 30 27.2778 30 28.6667C30 30.0556 29.5139 31.2362 28.5417 32.2084C27.5694 33.1806 26.3889 33.6667 25 33.6667Z" fill="black"/>
</svg>
